<svg fill="none" height="60" viewBox="0 0 160 60" width="160" xmlns="http://www.w3.org/2000/svg"><path d="m17.9062 41h4.1563l.6563-8.6562c.2812-4 .4374-6.5626.4374-7.6876l.25.8438c.1876.5625.4688 1.4688.9063 2.75s.9063 2.6562 1.4375 4.0938l3.0312 8.3437h2.8438l3.0938-8.3437c1.0937-2.9063 2.0312-5.5 2.8437-7.7813l.5937 7.7813.7813 8.6562h4.1563l-2.1876-22.2188h-4.7187l-3.125 8.0938c-1.2187 3.125-2.1563 5.8125-2.8437 8.0938l-.0938-.375c-.0938-.25-.2188-.6563-.375-1.1563-.1875-.5-.375-1.0625-.5625-1.6875-.2187-.625-.4687-1.4062-.7813-2.2812-.3124-.875-.625-1.7188-.9374-2.5938l-3.0313-8.0938h-4.75zm39.2813-9.7188h-7c.1875-1.3124.625-2.3124 1.3125-3 .6875-.6874 1.5312-1.0624 2.4688-1.0624 1.0312 0 1.8124.3437 2.3437 1 .5313.6562.8125 1.5.875 2.5624zm2.7187 5.375c-1.2187.875-2.6874 1.3126-4.4374 1.3126-1.375 0-2.5-.3126-3.4063-.9376-.9375-.625-1.5313-1.5624-1.8125-2.7812h10.4688c.1562-1.0625.25-1.875.25-2.4062 0-2.5-.6563-4.4376-1.9376-5.75-1.2812-1.3126-3-1.9688-5.1874-1.9688-2.1876 0-4 .7812-5.4376 2.2812-1.4374 1.5313-2.1562 3.625-2.1562 6.25 0 1.6563.3125 3.125 1 4.4063.6562 1.2813 1.6562 2.2813 2.9688 3 1.3124.75 2.8437 1.0937 4.625 1.0937.875 0 1.8124-.0937 2.7812-.2812.9375-.1875 1.7188-.4375 2.2812-.8125zm11.6563.5626c-1.0625 0-1.9375-.4063-2.625-1.2188s-1.0313-2-1.0313-3.5625c0-1.5.3126-2.6875.9688-3.5937.6562-.9063 1.5625-1.375 2.75-1.375 1.0625 0 1.9375.4374 2.625 1.2812s1.0625 2.1562 1.0625 3.9062c0 1.375-.375 2.5-1.0625 3.3126-.7188.8437-1.625 1.25-2.6875 1.25zm3.7187-12.9376v2.4376c-1-1.75-2.5624-2.625-4.625-2.625-2.0624 0-3.7187.8124-5 2.375-1.25 1.5937-1.9062 3.5937-1.9062 6 0 1.0624.1562 2.0624.4062 2.9687.25.875.5938 1.625 1.0313 2.25s.9375 1.125 1.5313 1.5625c.5624.4375 1.1874.75 1.8437.9688.625.1874 1.3125.3124 2.0313.3124 2.125 0 3.6874-.8437 4.7187-2.5v1.4688c0 1.4688-.375 2.5625-1.125 3.2812-.75.6876-1.9063 1.0626-3.4063 1.0626-2.125 0-3.9062-.5313-5.375-1.5938v4.0312c1.5938.7813 3.5 1.1876 5.75 1.1876.7188 0 1.4063-.0938 2.0938-.2188s1.3125-.3438 1.9375-.5938c.5937-.2812 1.1563-.6562 1.6563-1.0937s.9062-.9687 1.2812-1.5313c.375-.5624.6562-1.25.8438-2 .1874-.7812.3124-1.625.3124-2.5v-15.2187zm16.5938 9.5313v1.5937c0 .8438-.25 1.5313-.75 2.0313s-1.1875.75-2.0625.75c-.8125 0-1.4063-.1875-1.8125-.5625-.4375-.375-.625-.875-.625-1.5312 0-.6563.25-1.1876.8125-1.625.5313-.4376 1.3125-.6563 2.375-.6563zm-8.125-5c1.4688-1 3.0938-1.5 4.875-1.5.8125 0 1.4375.125 1.9375.375s.8125.5625 1 .9687c.1875.4063.2813.9063.2813 1.5v1.0313h-2.4376c-2.25 0-3.9687.4687-5.1562 1.3437-1.1875.9063-1.7812 2.1563-1.7812 3.75 0 1.4063.4687 2.5626 1.4062 3.4688.9375.9375 2.2188 1.375 3.7812 1.375 1.1876 0 2.125-.1875 2.8126-.5938.7187-.4062 1.2187-.9062 1.5312-1.5312v2h3.9375v-10.6875c0-2.125-.5313-3.6875-1.6563-4.75-1.125-1.0313-2.8437-1.5625-5.1562-1.5625-1.0938 0-2.125.125-3.0938.3438-1 .2187-1.75.4687-2.2812.7812z" fill="#222328"/><path d="m114.625 41-6.25-8.7188 6.094-8h-4.594l-5.906 7.875v-14.0624h-3.938v22.9062h3.938v-8.625l6 8.625zm2.75 0h3.969v-16.7188h-3.969zm-.406-21.7188c0 .4376.093.8438.312 1.2188.188.375.469.6875.844.875.375.2188.781.3125 1.219.3125.656 0 1.218-.2187 1.687-.6875.438-.4688.688-1.0312.688-1.7188 0-.4374-.125-.8124-.313-1.1874-.218-.375-.5-.6563-.875-.875-.375-.1876-.75-.3126-1.187-.3126-.688 0-1.25.25-1.688.6876-.468.4687-.687 1.0312-.687 1.6874zm13.562 7.9688h4.157v-2.9688h-4.157v-4h-3.937v4h-2.532v2.9688h2.532v8.4375c0 3.6563 1.781 5.4687 5.406 5.4687 1.188 0 2.156-.1562 2.969-.5312v-3.4375c-.75.5-1.5.7187-2.313.7187-.656 0-1.187-.1874-1.562-.5624s-.563-.9063-.563-1.5938zm6.657 11.4375c0 .7187.25 1.3125.75 1.8125s1.093.75 1.812.75c.469 0 .906-.0938 1.281-.3438.375-.2187.688-.5312.907-.9374.25-.375.343-.8126.343-1.2813 0-.6875-.25-1.3125-.75-1.8125s-1.093-.75-1.812-.75c-.688 0-1.313.25-1.813.75s-.718 1.125-.718 1.8125z" fill="#ef595b"/></svg>