<svg width="160" height="60" viewBox="0 0 160 60" fill="none" xmlns="http://www.w3.org/2000/svg">
<path d="M17.9062 41H22.0625L22.7188 32.3438C23 28.3438 23.1562 25.7812 23.1562 24.6562L23.4062 25.5C23.5938 26.0625 23.875 26.9688 24.3125 28.25C24.75 29.5312 25.2188 30.9062 25.75 32.3438L28.7812 40.6875H31.625L34.7188 32.3438C35.8125 29.4375 36.75 26.8438 37.5625 24.5625L38.1562 32.3438L38.9375 41H43.0938L40.9062 18.7812H36.1875L33.0625 26.875C31.8438 30 30.9062 32.6875 30.2188 34.9688L30.125 34.5938C30.0312 34.3438 29.9062 33.9375 29.75 33.4375C29.5625 32.9375 29.375 32.375 29.1875 31.75C28.9688 31.125 28.7188 30.3438 28.4062 29.4688C28.0938 28.5938 27.7812 27.75 27.4688 26.875L24.4375 18.7812H19.6875L17.9062 41ZM57.1875 31.2812H50.1875C50.375 29.9688 50.8125 28.9688 51.5 28.2812C52.1875 27.5938 53.0312 27.2188 53.9688 27.2188C55 27.2188 55.7812 27.5625 56.3125 28.2188C56.8438 28.875 57.125 29.7188 57.1875 30.7812V31.2812ZM59.9062 36.6562C58.6875 37.5312 57.2188 37.9688 55.4688 37.9688C54.0938 37.9688 52.9688 37.6562 52.0625 37.0312C51.125 36.4062 50.5312 35.4688 50.25 34.25H60.7188C60.875 33.1875 60.9688 32.375 60.9688 31.8438C60.9688 29.3438 60.3125 27.4062 59.0312 26.0938C57.75 24.7812 56.0312 24.125 53.8438 24.125C51.6562 24.125 49.8438 24.9062 48.4062 26.4062C46.9688 27.9375 46.25 30.0312 46.25 32.6562C46.25 34.3125 46.5625 35.7812 47.25 37.0625C47.9062 38.3438 48.9062 39.3438 50.2188 40.0625C51.5312 40.8125 53.0625 41.1562 54.8438 41.1562C55.7188 41.1562 56.6562 41.0625 57.625 40.875C58.5625 40.6875 59.3438 40.4375 59.9062 40.0625V36.6562ZM71.5625 37.2188C70.5 37.2188 69.625 36.8125 68.9375 36C68.25 35.1875 67.9062 34 67.9062 32.4375C67.9062 30.9375 68.2188 29.75 68.875 28.8438C69.5312 27.9375 70.4375 27.4688 71.625 27.4688C72.6875 27.4688 73.5625 27.9062 74.25 28.75C74.9375 29.5938 75.3125 30.9062 75.3125 32.6562C75.3125 34.0312 74.9375 35.1562 74.25 35.9688C73.5312 36.8125 72.625 37.2188 71.5625 37.2188ZM75.2812 24.2812V26.7188C74.2812 24.9688 72.7188 24.0938 70.6562 24.0938C68.5938 24.0938 66.9375 24.9062 65.6562 26.4688C64.4062 28.0625 63.75 30.0625 63.75 32.4688C63.75 33.5312 63.9062 34.5312 64.1562 35.4375C64.4062 36.3125 64.75 37.0625 65.1875 37.6875C65.625 38.3125 66.125 38.8125 66.7188 39.25C67.2812 39.6875 67.9062 40 68.5625 40.2188C69.1875 40.4062 69.875 40.5312 70.5938 40.5312C72.7188 40.5312 74.2812 39.6875 75.3125 38.0312V39.5C75.3125 40.9688 74.9375 42.0625 74.1875 42.7812C73.4375 43.4688 72.2812 43.8438 70.7812 43.8438C68.6562 43.8438 66.875 43.3125 65.4062 42.25V46.2812C67 47.0625 68.9062 47.4688 71.1562 47.4688C71.875 47.4688 72.5625 47.375 73.25 47.25C73.9375 47.125 74.5625 46.9062 75.1875 46.6562C75.7812 46.375 76.3438 46 76.8438 45.5625C77.3438 45.125 77.75 44.5938 78.125 44.0312C78.5 43.4688 78.7812 42.7812 78.9688 42.0312C79.1562 41.25 79.2812 40.4062 79.2812 39.5312V24.3125L75.2812 24.2812ZM91.875 33.8125V35.4062C91.875 36.25 91.625 36.9375 91.125 37.4375C90.625 37.9375 89.9375 38.1875 89.0625 38.1875C88.25 38.1875 87.6562 38 87.25 37.625C86.8125 37.25 86.625 36.75 86.625 36.0938C86.625 35.4375 86.875 34.9062 87.4375 34.4688C87.9688 34.0312 88.75 33.8125 89.8125 33.8125H91.875ZM83.75 28.8125C85.2188 27.8125 86.8438 27.3125 88.625 27.3125C89.4375 27.3125 90.0625 27.4375 90.5625 27.6875C91.0625 27.9375 91.375 28.25 91.5625 28.6562C91.75 29.0625 91.8438 29.5625 91.8438 30.1562V31.1875H89.4062C87.1562 31.1875 85.4375 31.6562 84.25 32.5312C83.0625 33.4375 82.4688 34.6875 82.4688 36.2812C82.4688 37.6875 82.9375 38.8438 83.875 39.75C84.8125 40.6875 86.0938 41.125 87.6562 41.125C88.8438 41.125 89.7812 40.9375 90.4688 40.5312C91.1875 40.125 91.6875 39.625 92 39V41H95.9375V30.3125C95.9375 28.1875 95.4062 26.625 94.2812 25.5625C93.1562 24.5312 91.4375 24 89.125 24C88.0312 24 87 24.125 86.0312 24.3438C85.0312 24.5625 84.2812 24.8125 83.75 25.125V28.8125Z" fill="white"/>
<path d="M114.625 41L108.375 32.2812L114.469 24.2812H109.875L103.969 32.1562V18.0938H100.031V41H103.969V32.375L109.969 41H114.625ZM117.375 41H121.344V24.2812H117.375V41ZM116.969 19.2812C116.969 19.7188 117.062 20.125 117.281 20.5C117.469 20.875 117.75 21.1875 118.125 21.375C118.5 21.5938 118.906 21.6875 119.344 21.6875C120 21.6875 120.562 21.4688 121.031 21C121.469 20.5312 121.719 19.9688 121.719 19.2812C121.719 18.8438 121.594 18.4688 121.406 18.0938C121.188 17.7188 120.906 17.4375 120.531 17.2188C120.156 17.0312 119.781 16.9062 119.344 16.9062C118.656 16.9062 118.094 17.1562 117.656 17.5938C117.188 18.0625 116.969 18.625 116.969 19.2812ZM130.531 27.25H134.688V24.2812H130.531V20.2812H126.594V24.2812H124.062V27.25H126.594V35.6875C126.594 39.3438 128.375 41.1562 132 41.1562C133.188 41.1562 134.156 41 134.969 40.625V37.1875C134.219 37.6875 133.469 37.9062 132.656 37.9062C132 37.9062 131.469 37.7188 131.094 37.3438C130.719 36.9688 130.531 36.4375 130.531 35.75V27.25ZM137.188 38.6875C137.188 39.4062 137.438 40 137.938 40.5C138.438 41 139.031 41.25 139.75 41.25C140.219 41.25 140.656 41.1562 141.031 40.9062C141.406 40.6875 141.719 40.375 141.938 39.9688C142.188 39.5938 142.281 39.1562 142.281 38.6875C142.281 38 142.031 37.375 141.531 36.875C141.031 36.375 140.438 36.125 139.719 36.125C139.031 36.125 138.406 36.375 137.906 36.875C137.406 37.375 137.188 38 137.188 38.6875Z" fill="#EF595B"/>
</svg>
